<svg id="visual" viewBox="0 0 960 300" width="960" height="300" xmlns="http://www.w3.org/2000/svg" xmlns:xlink="http://www.w3.org/1999/xlink" version="1.1"><rect x="0" y="0" width="960" height="300" fill="#f8fafc"></rect><path d="M0 252L22.8 251.3C45.7 250.7 91.3 249.3 137 248.7C182.7 248 228.3 248 274 236.3C319.7 224.7 365.3 201.3 411.2 196.5C457 191.7 503 205.3 548.8 213.5C594.7 221.7 640.3 224.3 686 219C731.7 213.7 777.3 200.3 823 200.8C868.7 201.3 914.3 215.7 937.2 222.8L960 230L960 0L937.2 0C914.3 0 868.7 0 823 0C777.3 0 731.7 0 686 0C640.3 0 594.7 0 548.8 0C503 0 457 0 411.2 0C365.3 0 319.7 0 274 0C228.3 0 182.7 0 137 0C91.3 0 45.7 0 22.8 0L0 0Z" fill="#9333ea"></path><path d="M0 176L22.8 171.3C45.7 166.7 91.3 157.3 137 150.8C182.7 144.3 228.3 140.7 274 147.7C319.7 154.7 365.3 172.3 411.2 174C457 175.7 503 161.3 548.8 164C594.7 166.7 640.3 186.3 686 189.3C731.7 192.3 777.3 178.7 823 168.3C868.7 158 914.3 151 937.2 147.5L960 144L960 0L937.2 0C914.3 0 868.7 0 823 0C777.3 0 731.7 0 686 0C640.3 0 594.7 0 548.8 0C503 0 457 0 411.2 0C365.3 0 319.7 0 274 0C228.3 0 182.7 0 137 0C91.3 0 45.7 0 22.8 0L0 0Z" fill="#842dd0"></path><path d="M0 155L22.8 156.3C45.7 157.7 91.3 160.3 137 154.3C182.7 148.3 228.3 133.7 274 126C319.7 118.3 365.3 117.7 411.2 117.2C457 116.7 503 116.3 548.8 114.7C594.7 113 640.3 110 686 115.3C731.7 120.7 777.3 134.3 823 135.7C868.7 137 914.3 126 937.2 120.5L960 115L960 0L937.2 0C914.3 0 868.7 0 823 0C777.3 0 731.7 0 686 0C640.3 0 594.7 0 548.8 0C503 0 457 0 411.2 0C365.3 0 319.7 0 274 0C228.3 0 182.7 0 137 0C91.3 0 45.7 0 22.8 0L0 0Z" fill="#7527b7"></path><path d="M0 99L22.8 98C45.7 97 91.3 95 137 89.5C182.7 84 228.3 75 274 70.5C319.7 66 365.3 66 411.2 74.3C457 82.7 503 99.3 548.8 104.7C594.7 110 640.3 104 686 102.7C731.7 101.3 777.3 104.7 823 100.2C868.7 95.7 914.3 83.3 937.2 77.2L960 71L960 0L937.2 0C914.3 0 868.7 0 823 0C777.3 0 731.7 0 686 0C640.3 0 594.7 0 548.8 0C503 0 457 0 411.2 0C365.3 0 319.7 0 274 0C228.3 0 182.7 0 137 0C91.3 0 45.7 0 22.8 0L0 0Z" fill="#66219f"></path><path d="M0 63L22.8 62.8C45.7 62.7 91.3 62.3 137 58C182.7 53.7 228.3 45.3 274 44.7C319.7 44 365.3 51 411.2 54.8C457 58.7 503 59.3 548.8 60.2C594.7 61 640.3 62 686 58.8C731.7 55.7 777.3 48.3 823 47.2C868.7 46 914.3 51 937.2 53.5L960 56L960 0L937.2 0C914.3 0 868.7 0 823 0C777.3 0 731.7 0 686 0C640.3 0 594.7 0 548.8 0C503 0 457 0 411.2 0C365.3 0 319.7 0 274 0C228.3 0 182.7 0 137 0C91.3 0 45.7 0 22.8 0L0 0Z" fill="#581c87"></path></svg>