<svg id="visual" viewBox="0 0 960 300" width="960" height="300" xmlns="http://www.w3.org/2000/svg" xmlns:xlink="http://www.w3.org/1999/xlink" version="1.1"><rect x="0" y="0" width="960" height="300" fill="#121212"></rect><path d="M0 230L22.8 231.5C45.7 233 91.3 236 137 228.2C182.7 220.3 228.3 201.7 274 190.5C319.7 179.3 365.3 175.7 411.2 184.8C457 194 503 216 548.8 215C594.7 214 640.3 190 686 178.5C731.7 167 777.3 168 823 171.8C868.7 175.7 914.3 182.3 937.2 185.7L960 189L960 0L937.2 0C914.3 0 868.7 0 823 0C777.3 0 731.7 0 686 0C640.3 0 594.7 0 548.8 0C503 0 457 0 411.2 0C365.3 0 319.7 0 274 0C228.3 0 182.7 0 137 0C91.3 0 45.7 0 22.8 0L0 0Z" fill="#7e22ce"></path><path d="M0 160L22.8 156.7C45.7 153.3 91.3 146.7 137 153.2C182.7 159.7 228.3 179.3 274 183.5C319.7 187.7 365.3 176.3 411.2 173.7C457 171 503 177 548.8 171.2C594.7 165.3 640.3 147.7 686 145.7C731.7 143.7 777.3 157.3 823 166.5C868.7 175.7 914.3 180.3 937.2 182.7L960 185L960 0L937.2 0C914.3 0 868.7 0 823 0C777.3 0 731.7 0 686 0C640.3 0 594.7 0 548.8 0C503 0 457 0 411.2 0C365.3 0 319.7 0 274 0C228.3 0 182.7 0 137 0C91.3 0 45.7 0 22.8 0L0 0Z" fill="#7521bc"></path><path d="M0 95L22.8 98.2C45.7 101.3 91.3 107.7 137 118.8C182.7 130 228.3 146 274 144.2C319.7 142.3 365.3 122.7 411.2 117.7C457 112.7 503 122.3 548.8 127.2C594.7 132 640.3 132 686 128.7C731.7 125.3 777.3 118.7 823 113C868.7 107.3 914.3 102.7 937.2 100.3L960 98L960 0L937.2 0C914.3 0 868.7 0 823 0C777.3 0 731.7 0 686 0C640.3 0 594.7 0 548.8 0C503 0 457 0 411.2 0C365.3 0 319.7 0 274 0C228.3 0 182.7 0 137 0C91.3 0 45.7 0 22.8 0L0 0Z" fill="#6b1faa"></path><path d="M0 115L22.8 114.8C45.7 114.7 91.3 114.3 137 111C182.7 107.7 228.3 101.3 274 96.8C319.7 92.3 365.3 89.7 411.2 91C457 92.3 503 97.7 548.8 101.8C594.7 106 640.3 109 686 104.5C731.7 100 777.3 88 823 87.2C868.7 86.3 914.3 96.7 937.2 101.8L960 107L960 0L937.2 0C914.3 0 868.7 0 823 0C777.3 0 731.7 0 686 0C640.3 0 594.7 0 548.8 0C503 0 457 0 411.2 0C365.3 0 319.7 0 274 0C228.3 0 182.7 0 137 0C91.3 0 45.7 0 22.8 0L0 0Z" fill="#621e98"></path><path d="M0 48L22.8 44.2C45.7 40.3 91.3 32.7 137 35.5C182.7 38.3 228.3 51.7 274 58.5C319.7 65.3 365.3 65.7 411.2 61.3C457 57 503 48 548.8 44.7C594.7 41.3 640.3 43.7 686 48.3C731.7 53 777.3 60 823 58.2C868.7 56.3 914.3 45.7 937.2 40.3L960 35L960 0L937.2 0C914.3 0 868.7 0 823 0C777.3 0 731.7 0 686 0C640.3 0 594.7 0 548.8 0C503 0 457 0 411.2 0C365.3 0 319.7 0 274 0C228.3 0 182.7 0 137 0C91.3 0 45.7 0 22.8 0L0 0Z" fill="#581c87"></path></svg>